<svg xmlns="http://www.w3.org/2000/svg" width="920" height="600" viewBox="0 0 920 600" font-family="'Leelawadee UI','Noto Sans Thai',Tahoma,Loma,sans-serif" role="img" aria-label="Scatter plot ความยาวและความกว้างกลีบดอกของ Iris 150 ดอก แยกสี 3 สายพันธุ์" xmlns:c2pa="http://c2pa.org/manifest"><metadata><c2pa:manifest>AAAWgmp1bWIAAAAeanVtZGMycGEAEQAQgAAAqgA4m3EDYzJwYQAAABZcanVtYgAAAEdqdW1kYzJtYQARABCAAACqADibcQN1cm46YzJwYTozOGEyZmYzNy00MGNmLTQ4ZmUtOGIyYy00ZWM4N2RlZDlhNzAAAAADl2p1bWIAAAApanVtZGMyYXMAEQAQgAAAqgA4m3EDYzJwYS5hc3NlcnRpb25zAAAAALxqdW1iAAAARGp1bWRjYm9yABEAEIAAAKoAOJtxE2MycGEuaW5ncmVkaWVudC52MwAAAAAYYzJzaEa1nLe8uwGPkk1TrBEouVcAAABwY2JvcqNpZGM6Zm9ybWF0bWltYWdlL3N2Zyt4bWxqaW5zdGFuY2VJRHgseG1wOmlpZDo3YzA2OGVjMy04N2UxLTQ2OWMtYTM0OS1iMjliOGExODJlMjlscmVsYXRpb25zaGlwaHBhcmVudE9mAAAB4mp1bWIAAABBanVtZGNib3IAEQAQgAAAqgA4m3ETYzJwYS5hY3Rpb25zLnYyAAAAABhjMnNocUhL/6lqjzdQaINKAiKBbQAAAZljYm9yomdhY3Rpb25zgqJmYWN0aW9ua2MycGEub3BlbmVkanBhcmFtZXRlcnOha2luZ3JlZGllbnRzgaJjdXJseC1zZWxmI2p1bWJmPWMycGEuYXNzZXJ0aW9ucy9jMnBhLmluZ3JlZGllbnQudjNkaGFzaFggvyklhhjGNtg2HnICpF6SAysU3gZZCejIJEj0PsJlwvOkZmFjdGlvbngdY29tLmFudGhyb3BpYy5jbGF1ZGUucHJvdmlkZWRqcGFyYW1ldGVyc6F4H2NvbS5hbnRocm9waWMub3JpZ2luLWNvbmZpZGVuY2VndW5rbm93bmtkZXNjcmlwdGlvbnhmQ2xhdWRlIHByb3ZpZGVkIHRoaXMgZmlsZSBhdCB0aGUgcmVxdWVzdCBvZiBhIHVzZXIgYW5kIG1heSBoYXZlIGNyZWF0ZWQgb3IgbW9kaWZpZWQgdGhlIGZpbGUgY29udGVudHMubXNvZnR3YXJlQWdlbnShZG5hbWVmQ2xhdWRlcmFsbEFjdGlvbnNJbmNsdWRlZPUAAADIanVtYgAAAEBqdW1kY2JvcgARABCAAACqADibcRNjMnBhLmhhc2guZGF0YQAAAAAYYzJzaD5lSRq9USTuKO4eJ7DDRmsAAACAY2JvcqVjYWxnZnNoYTI1NmNwYWRMAAAAAAAAAAAAAAAAZGhhc2hYIDuXZYV5/xgU79ZCVNeIi3iQ+XWUh04vhFklKEvWyZTKZG5hbWVuanVtYmYgbWFuaWZlc3RqZXhjbHVzaW9uc4GiZXN0YXJ0GQGaZmxlbmd0aBkeBAAAAj5qdW1iAAAAJ2p1bWRjMmNsABEAEIAAAKoAOJtxA2MycGEuY2xhaW0udjIAAAACD2Nib3KlY2FsZ2ZzaGEyNTZpc2lnbmF0dXJleE1zZWxmI2p1bWJmPS9jMnBhL3VybjpjMnBhOjM4YTJmZjM3LTQwY2YtNDhmZS04YjJjLTRlYzg3ZGVkOWE3MC9jMnBhLnNpZ25hdHVyZWppbnN0YW5jZUlEeCx4bXA6aWlkOjg1ZmFjNTNmLTE2MmItNDU4OS05MTRmLWJiMmI5ZThjNjU0Y3JjcmVhdGVkX2Fzc2VydGlvbnODomN1cmx4LXNlbGYjanVtYmY9YzJwYS5hc3NlcnRpb25zL2MycGEuaW5ncmVkaWVudC52M2RoYXNoWCC/KSWGGMY22DYecgKkXpIDKxTeBlkJ6MgkSPQ+wmXC86JjdXJseCpzZWxmI2p1bWJmPWMycGEuYXNzZXJ0aW9ucy9jMnBhLmFjdGlvbnMudjJkaGFzaFggKR4CVuVClomUc0mbjNl3q3PmpnQnoRqyP+KnRxtoawmiY3VybHgpc2VsZiNqdW1iZj1jMnBhLmFzc2VydGlvbnMvYzJwYS5oYXNoLmRhdGFkaGFzaFggljTDJZhtZpMWGCtYh5h4XgZIoHyz0PysV1CCJnBdtIR0Y2xhaW1fZ2VuZXJhdG9yX2luZm+jZG5hbWVvQW50aHJvcGljIEZpbGVzZ3ZlcnNpb25lMS4wLjBrc3BlY1ZlcnNpb25lMi40LjAAABA4anVtYgAAAChqdW1kYzJjcwARABCAAACqADibcQNjMnBhLnNpZ25hdHVyZQAAABAIY2JvctKEWQISogEmGCFZAgowggIGMIIBjaADAgECAhRA5aAK7sI50L64g/oGQgU9Z1UTADAKBggqhkjOPQQDAzBJMRcwFQYDVQQKEw5BbnRocm9waWMsIFBCQzEuMCwGA1UEAxMlQW50aHJvcGljIENvbnRlbnQgQ3JlZGVudGlhbHMgUm9vdCBDQTAeFw0yNjA4MDcxODQzNTZaFw0yODA4MDYxOTQzNTZaMEQxFzAVBgNVBAoTDkFudGhyb3BpYywgUEJDMSkwJwYDVQQDEyBBbnRocm9waWMgQ2xhdWRlIENvbnRlbnQgU2lnbmluZzBZMBMGByqGSM49AgEGCCqGSM49AwEHA0IABJh6CmvLUBgFFNU0vUKlOVtE6djd17L5SuwX0LemFisBM3dkd/3cyjxFA3Qo5S46fX0/ihY0VZ7mfb9KF703t5OjWDBWMA4GA1UdDwEB/wQEAwIHgDAVBgNVHSUEDjAMBgorBgEEAYPoXgIBMAwGA1UdEwEB/wQCMAAwHwYDVR0jBBgwFoAUzlHiBIFOZFsj+OPEz5o+nMHXXMIwCgYIKoZIzj0EAwMDZwAwZAIwMXMdFJ4BetLLVY7ORuE9noqbbAZOZn/aArXyTwFAZfKrPzxF2vPoJNf1+UCdg1XGAjBwX1zd9WGqYkqmL5SFqw1QySjr1zJfpJM9+1rdDwSPLMOPOjKuiXjoU/pUUeG9RwmhY3BhZFkNngAAAAAAAAAAAAAAAAAAAAAAAAAAAAAAAAAAAAAAAAAAAAAAAAAAAAAAAAAAAAAAAAAAAAAAAAAAAAAAAAAAAAAAAAAAAAAAAAAAAAAAAAAAAAAAAAAAAAAAAAAAAAAAAAAAAAAAAAAAAAAAAAAAAAAAAAAAAAAAAAAAAAAAAAAAAAAAAAAAAAAAAAAAAAAAAAAAAAAAAAAAAAAAAAAAAAAAAAAAAAAAAAAAAAAAAAAAAAAAAAAAAAAAAAAAAAAAAAAAAAAAAAAAAAAAAAAAAAAAAAAAAAAAAAAAAAAAAAAAAAAAAAAAAAAAAAAAAAAAAAAAAAAAAAAAAAAAAAAAAAAAAAAAAAAAAAAAAAAAAAAAAAAAAAAAAAAAAAAAAAAAAAAAAAAAAAAAAAAAAAAAAAAAAAAAAAAAAAAAAAAAAAAAAAAAAAAAAAAAAAAAAAAAAAAAAAAAAAAAAAAAAAAAAAAAAAAAAAAAAAAAAAAAAAAAAAAAAAAAAAAAAAAAAAAAAAAAAAAAAAAAAAAAAAAAAAAAAAAAAAAAAAAAAAAAAAAAAAAAAAAAAAAAAAAAAAAAAAAAAAAAAAAAAAAAAAAAAAAAAAAAAAAAAAAAAAAAAAAAAAAAAAAAAAAAAAAAAAAAAAAAAAAAAAAAAAAAAAAAAAAAAAAAAAAAAAAAAAAAAAAAAAAAAAAAAAAAAAAAAAAAAAAAAAAAAAAAAAAAAAAAAAAAAAAAAAAAAAAAAAAAAAAAAAAAAAAAAAAAAAAAAAAAAAAAAAAAAAAAAAAAAAAAAAAAAAAAAAAAAAAAAAAAAAAAAAAAAAAAAAAAAAAAAAAAAAAAAAAAAAAAAAAAAAAAAAAAAAAAAAAAAAAAAAAAAAAAAAAAAAAAAAAAAAAAAAAAAAAAAAAAAAAAAAAAAAAAAAAAAAAAAAAAAAAAAAAAAAAAAAAAAAAAAAAAAAAAAAAAAAAAAAAAAAAAAAAAAAAAAAAAAAAAAAAAAAAAAAAAAAAAAAAAAAAAAAAAAAAAAAAAAAAAAAAAAAAAAAAAAAAAAAAAAAAAAAAAAAAAAAAAAAAAAAAAAAAAAAAAAAAAAAAAAAAAAAAAAAAAAAAAAAAAAAAAAAAAAAAAAAAAAAAAAAAAAAAAAAAAAAAAAAAAAAAAAAAAAAAAAAAAAAAAAAAAAAAAAAAAAAAAAAAAAAAAAAAAAAAAAAAAAAAAAAAAAAAAAAAAAAAAAAAAAAAAAAAAAAAAAAAAAAAAAAAAAAAAAAAAAAAAAAAAAAAAAAAAAAAAAAAAAAAAAAAAAAAAAAAAAAAAAAAAAAAAAAAAAAAAAAAAAAAAAAAAAAAAAAAAAAAAAAAAAAAAAAAAAAAAAAAAAAAAAAAAAAAAAAAAAAAAAAAAAAAAAAAAAAAAAAAAAAAAAAAAAAAAAAAAAAAAAAAAAAAAAAAAAAAAAAAAAAAAAAAAAAAAAAAAAAAAAAAAAAAAAAAAAAAAAAAAAAAAAAAAAAAAAAAAAAAAAAAAAAAAAAAAAAAAAAAAAAAAAAAAAAAAAAAAAAAAAAAAAAAAAAAAAAAAAAAAAAAAAAAAAAAAAAAAAAAAAAAAAAAAAAAAAAAAAAAAAAAAAAAAAAAAAAAAAAAAAAAAAAAAAAAAAAAAAAAAAAAAAAAAAAAAAAAAAAAAAAAAAAAAAAAAAAAAAAAAAAAAAAAAAAAAAAAAAAAAAAAAAAAAAAAAAAAAAAAAAAAAAAAAAAAAAAAAAAAAAAAAAAAAAAAAAAAAAAAAAAAAAAAAAAAAAAAAAAAAAAAAAAAAAAAAAAAAAAAAAAAAAAAAAAAAAAAAAAAAAAAAAAAAAAAAAAAAAAAAAAAAAAAAAAAAAAAAAAAAAAAAAAAAAAAAAAAAAAAAAAAAAAAAAAAAAAAAAAAAAAAAAAAAAAAAAAAAAAAAAAAAAAAAAAAAAAAAAAAAAAAAAAAAAAAAAAAAAAAAAAAAAAAAAAAAAAAAAAAAAAAAAAAAAAAAAAAAAAAAAAAAAAAAAAAAAAAAAAAAAAAAAAAAAAAAAAAAAAAAAAAAAAAAAAAAAAAAAAAAAAAAAAAAAAAAAAAAAAAAAAAAAAAAAAAAAAAAAAAAAAAAAAAAAAAAAAAAAAAAAAAAAAAAAAAAAAAAAAAAAAAAAAAAAAAAAAAAAAAAAAAAAAAAAAAAAAAAAAAAAAAAAAAAAAAAAAAAAAAAAAAAAAAAAAAAAAAAAAAAAAAAAAAAAAAAAAAAAAAAAAAAAAAAAAAAAAAAAAAAAAAAAAAAAAAAAAAAAAAAAAAAAAAAAAAAAAAAAAAAAAAAAAAAAAAAAAAAAAAAAAAAAAAAAAAAAAAAAAAAAAAAAAAAAAAAAAAAAAAAAAAAAAAAAAAAAAAAAAAAAAAAAAAAAAAAAAAAAAAAAAAAAAAAAAAAAAAAAAAAAAAAAAAAAAAAAAAAAAAAAAAAAAAAAAAAAAAAAAAAAAAAAAAAAAAAAAAAAAAAAAAAAAAAAAAAAAAAAAAAAAAAAAAAAAAAAAAAAAAAAAAAAAAAAAAAAAAAAAAAAAAAAAAAAAAAAAAAAAAAAAAAAAAAAAAAAAAAAAAAAAAAAAAAAAAAAAAAAAAAAAAAAAAAAAAAAAAAAAAAAAAAAAAAAAAAAAAAAAAAAAAAAAAAAAAAAAAAAAAAAAAAAAAAAAAAAAAAAAAAAAAAAAAAAAAAAAAAAAAAAAAAAAAAAAAAAAAAAAAAAAAAAAAAAAAAAAAAAAAAAAAAAAAAAAAAAAAAAAAAAAAAAAAAAAAAAAAAAAAAAAAAAAAAAAAAAAAAAAAAAAAAAAAAAAAAAAAAAAAAAAAAAAAAAAAAAAAAAAAAAAAAAAAAAAAAAAAAAAAAAAAAAAAAAAAAAAAAAAAAAAAAAAAAAAAAAAAAAAAAAAAAAAAAAAAAAAAAAAAAAAAAAAAAAAAAAAAAAAAAAAAAAAAAAAAAAAAAAAAAAAAAAAAAAAAAAAAAAAAAAAAAAAAAAAAAAAAAAAAAAAAAAAAAAAAAAAAAAAAAAAAAAAAAAAAAAAAAAAAAAAAAAAAAAAAAAAAAAAAAAAAAAAAAAAAAAAAAAAAAAAAAAAAAAAAAAAAAAAAAAAAAAAAAAAAAAAAAAAAAAAAAAAAAAAAAAAAAAAAAAAAAAAAAAAAAAAAAAAAAAAAAAAAAAAAAAAAAAAAAAAAAAAAAAAAAAAAAAAAAAAAAAAAAAAAAAAAAAAAAAAAAAAAAAAAAAAAAAAAAAAAAAAAAAAAAAAAAAAAAAAAAAAAAAAAAAAAAAAAAAAAAAAAAAAAAAAAAAAAAAAAAAAAAAAAAAAAAAAAAAAAAAAAAAAAAAAAAAAAAAAAAAAAAAAAAAAAAAAAAAAAAAAAAAAAAAAAAAAAAAAAAAAAAAAAAAAAAAAAAAAAAAAAAAAAAAAAAAAAAAAAAAAAAAAAAAAAAAAAAAAAAAAAAAAAAAAAAAAAAAAAAAAAAAAAAAAAAAAAAAAAAAAAAAAAAAAAAAAAAAAAAAAAAAAAAAAAAAAAAAAAAAAAAAAAAAAAAAAAAAAAAAAAAAAAAAAAAAAAAAAAAAAAAAAAAAAAAAAAAAAAAAAAAAAAAAAAAAAAAAAAAAAAAAAAAAAAAAAAAAAAAAAAAAAAAAAAAAAAAAAAAAAAAAAAAAAAAAAAAAAAAAAAAAAAAAAAAAAAAAAAAAAAAAAAAAAAAAAAAAAAAAAAAAAAAAAAAAAAAAAAAAAAAAAAAAAAAAAAAAAAAAAAAAAAAAAAAAAAAAAAAAAAAAAAAAAAAAAAAAAAAAAAAAAAAAAAAAAAAAAAAAAAAAAAAAAAAAAAAAAAAAAAAAAAAAAAAAAAAAAAAAAAAAAAAAAAAAAAAAAAAAAAAAAAAAAAAAAAAAAAAAAAAAAAAAAAAAAAAAAAAAAAAAAAAAAAAAAAAAAAAAAAAAAAAAAAAAAAAAAAAAAAAAAAAAAAAAAAAAAAAAAAAAAAAAAAAAAAAAAAAAAAAAAAAAAAAAAAAAAAAAAAAAAAAAAAAAAAAAAAAAAAAAAAAAAAAAAAAAAAAAAAAAAAAAAAAAAAAAAAAAAAAAAAAAAAAAAAAAAAAAAAAAAAAAAAAAAAAAAAAAAAAAAAAAAAAAAAAAAAAAAAAAAAAAAAAAAAAAAAAAAAAAAAAAAAAAAAAAAAAAAAAAAAAAAAAAAAAAAAAAAAAAAAAAAAAAAAAAAAAAAAAAAAAAAAAAAAAAAAAAAAAAAAAAAAAAAAAAAAAAAAAAAAAAAAAAAAAAAAAAAAAAAAAAAAAAAAAAAAAAAAAAAAAAAAAAAAAAAAAAAAAAAAAAAAAAAAAAAAAAAAAAAAAAAAAAAAAAAAAAAAAAAAAAAAAAAAAAAAAAAAAAAAAAAAAAAAAAAAAAAAAAAAAAAAAAAAAAAAAAAAAAAAAAAAAAAAAAAAAAAAAAAAAAAAAAAAAAAAAAAAAAAAAAAAAAAAAAAAAAAAAAAAAAAAAAAAAAAAAAAAAAAAAAAAAAAAAAAAAAAAAAAAAAAAAAAAAAAAAAAAAAAAAAAAAAAAAAAAAAAAAAAAAAAAAAAAAAAAAAAAAAAAAAAAAAAAAAAAAAAAAAAAAAAAAAAAAAAAAAAAAAAAAAAAAAAAAAAAAAAAAAAAAAAAAAAAAAAAAAPZYQBkcurzEB4BgeUhTq97owfEoV3GIhUH1uZfXHGerPX2jgPT4JKnp2wd/Y+HWKPi1OPtZobjFfswOonIlDkQb6ns=</c2pa:manifest></metadata>
<title>ขนาดกลีบดอกของ Iris 3 สายพันธุ์</title>
<rect width="920" height="600" rx="12" fill="#f4f3ef"/>
<rect x="16" y="16" width="888" height="568" rx="10" fill="#fcfcfb" stroke="#dedcd5"/>
<text x="36" y="50" font-size="18" font-weight="700" fill="#0b0b0b">ขนาดกลีบดอก (petal) แยก 3 สายพันธุ์ได้เกือบหมด</text>
<text x="36" y="74" font-size="13.5" fill="#52514e">ข้อมูล Iris ทั้ง 150 ดอก · จุดซ้อนกันได้เมื่อหลายดอกมีขนาดเท่ากัน</text>
<line x1="124.0" y1="110" x2="124.0" y2="510" stroke="#e6e4dd"/>
<text x="124.0" y="530" font-size="12.5" fill="#52514e" text-anchor="middle">1</text>
<line x1="204.0" y1="110" x2="204.0" y2="510" stroke="#e6e4dd"/>
<text x="204.0" y="530" font-size="12.5" fill="#52514e" text-anchor="middle">2</text>
<line x1="284.0" y1="110" x2="284.0" y2="510" stroke="#e6e4dd"/>
<text x="284.0" y="530" font-size="12.5" fill="#52514e" text-anchor="middle">3</text>
<line x1="364.0" y1="110" x2="364.0" y2="510" stroke="#e6e4dd"/>
<text x="364.0" y="530" font-size="12.5" fill="#52514e" text-anchor="middle">4</text>
<line x1="444.0" y1="110" x2="444.0" y2="510" stroke="#e6e4dd"/>
<text x="444.0" y="530" font-size="12.5" fill="#52514e" text-anchor="middle">5</text>
<line x1="524.0" y1="110" x2="524.0" y2="510" stroke="#e6e4dd"/>
<text x="524.0" y="530" font-size="12.5" fill="#52514e" text-anchor="middle">6</text>
<line x1="604.0" y1="110" x2="604.0" y2="510" stroke="#e6e4dd"/>
<text x="604.0" y="530" font-size="12.5" fill="#52514e" text-anchor="middle">7</text>
<line x1="84" y1="510.0" x2="644" y2="510.0" stroke="#e6e4dd"/>
<text x="74" y="514.0" font-size="12.5" fill="#52514e" text-anchor="end">0.0</text>
<line x1="84" y1="438.6" x2="644" y2="438.6" stroke="#e6e4dd"/>
<text x="74" y="442.6" font-size="12.5" fill="#52514e" text-anchor="end">0.5</text>
<line x1="84" y1="367.1" x2="644" y2="367.1" stroke="#e6e4dd"/>
<text x="74" y="371.1" font-size="12.5" fill="#52514e" text-anchor="end">1.0</text>
<line x1="84" y1="295.7" x2="644" y2="295.7" stroke="#e6e4dd"/>
<text x="74" y="299.7" font-size="12.5" fill="#52514e" text-anchor="end">1.5</text>
<line x1="84" y1="224.3" x2="644" y2="224.3" stroke="#e6e4dd"/>
<text x="74" y="228.3" font-size="12.5" fill="#52514e" text-anchor="end">2.0</text>
<line x1="84" y1="152.9" x2="644" y2="152.9" stroke="#e6e4dd"/>
<text x="74" y="156.9" font-size="12.5" fill="#52514e" text-anchor="end">2.5</text>
<text x="364.0" y="556" font-size="13.5" fill="#0b0b0b" text-anchor="middle">petal_length — ความยาวกลีบดอก (ซม.)</text>
<text x="30" y="310.0" font-size="13.5" fill="#0b0b0b" text-anchor="middle" transform="rotate(-90 30 310.0)">petal_width — ความกว้างกลีบดอก (ซม.)</text>
<circle cx="156.0" cy="481.4" r="4.6" fill="#2a78d6" fill-opacity="0.88" stroke="#fcfcfb" stroke-width="1.5"/>
<circle cx="156.0" cy="481.4" r="4.6" fill="#2a78d6" fill-opacity="0.88" stroke="#fcfcfb" stroke-width="1.5"/>
<circle cx="148.0" cy="481.4" r="4.6" fill="#2a78d6" fill-opacity="0.88" stroke="#fcfcfb" stroke-width="1.5"/>
<circle cx="164.0" cy="481.4" r="4.6" fill="#2a78d6" fill-opacity="0.88" stroke="#fcfcfb" stroke-width="1.5"/>
<circle cx="156.0" cy="481.4" r="4.6" fill="#2a78d6" fill-opacity="0.88" stroke="#fcfcfb" stroke-width="1.5"/>
<circle cx="180.0" cy="452.9" r="4.6" fill="#2a78d6" fill-opacity="0.88" stroke="#fcfcfb" stroke-width="1.5"/>
<circle cx="156.0" cy="467.1" r="4.6" fill="#2a78d6" fill-opacity="0.88" stroke="#fcfcfb" stroke-width="1.5"/>
<circle cx="164.0" cy="481.4" r="4.6" fill="#2a78d6" fill-opacity="0.88" stroke="#fcfcfb" stroke-width="1.5"/>
<circle cx="156.0" cy="481.4" r="4.6" fill="#2a78d6" fill-opacity="0.88" stroke="#fcfcfb" stroke-width="1.5"/>
<circle cx="164.0" cy="495.7" r="4.6" fill="#2a78d6" fill-opacity="0.88" stroke="#fcfcfb" stroke-width="1.5"/>
<circle cx="164.0" cy="481.4" r="4.6" fill="#2a78d6" fill-opacity="0.88" stroke="#fcfcfb" stroke-width="1.5"/>
<circle cx="172.0" cy="481.4" r="4.6" fill="#2a78d6" fill-opacity="0.88" stroke="#fcfcfb" stroke-width="1.5"/>
<circle cx="156.0" cy="495.7" r="4.6" fill="#2a78d6" fill-opacity="0.88" stroke="#fcfcfb" stroke-width="1.5"/>
<circle cx="132.0" cy="495.7" r="4.6" fill="#2a78d6" fill-opacity="0.88" stroke="#fcfcfb" stroke-width="1.5"/>
<circle cx="140.0" cy="481.4" r="4.6" fill="#2a78d6" fill-opacity="0.88" stroke="#fcfcfb" stroke-width="1.5"/>
<circle cx="164.0" cy="452.9" r="4.6" fill="#2a78d6" fill-opacity="0.88" stroke="#fcfcfb" stroke-width="1.5"/>
<circle cx="148.0" cy="452.9" r="4.6" fill="#2a78d6" fill-opacity="0.88" stroke="#fcfcfb" stroke-width="1.5"/>
<circle cx="156.0" cy="467.1" r="4.6" fill="#2a78d6" fill-opacity="0.88" stroke="#fcfcfb" stroke-width="1.5"/>
<circle cx="180.0" cy="467.1" r="4.6" fill="#2a78d6" fill-opacity="0.88" stroke="#fcfcfb" stroke-width="1.5"/>
<circle cx="164.0" cy="467.1" r="4.6" fill="#2a78d6" fill-opacity="0.88" stroke="#fcfcfb" stroke-width="1.5"/>
<circle cx="180.0" cy="481.4" r="4.6" fill="#2a78d6" fill-opacity="0.88" stroke="#fcfcfb" stroke-width="1.5"/>
<circle cx="164.0" cy="452.9" r="4.6" fill="#2a78d6" fill-opacity="0.88" stroke="#fcfcfb" stroke-width="1.5"/>
<circle cx="124.0" cy="481.4" r="4.6" fill="#2a78d6" fill-opacity="0.88" stroke="#fcfcfb" stroke-width="1.5"/>
<circle cx="180.0" cy="438.6" r="4.6" fill="#2a78d6" fill-opacity="0.88" stroke="#fcfcfb" stroke-width="1.5"/>
<circle cx="196.0" cy="481.4" r="4.6" fill="#2a78d6" fill-opacity="0.88" stroke="#fcfcfb" stroke-width="1.5"/>
<circle cx="172.0" cy="481.4" r="4.6" fill="#2a78d6" fill-opacity="0.88" stroke="#fcfcfb" stroke-width="1.5"/>
<circle cx="172.0" cy="452.9" r="4.6" fill="#2a78d6" fill-opacity="0.88" stroke="#fcfcfb" stroke-width="1.5"/>
<circle cx="164.0" cy="481.4" r="4.6" fill="#2a78d6" fill-opacity="0.88" stroke="#fcfcfb" stroke-width="1.5"/>
<circle cx="156.0" cy="481.4" r="4.6" fill="#2a78d6" fill-opacity="0.88" stroke="#fcfcfb" stroke-width="1.5"/>
<circle cx="172.0" cy="481.4" r="4.6" fill="#2a78d6" fill-opacity="0.88" stroke="#fcfcfb" stroke-width="1.5"/>
<circle cx="172.0" cy="481.4" r="4.6" fill="#2a78d6" fill-opacity="0.88" stroke="#fcfcfb" stroke-width="1.5"/>
<circle cx="164.0" cy="452.9" r="4.6" fill="#2a78d6" fill-opacity="0.88" stroke="#fcfcfb" stroke-width="1.5"/>
<circle cx="164.0" cy="495.7" r="4.6" fill="#2a78d6" fill-opacity="0.88" stroke="#fcfcfb" stroke-width="1.5"/>
<circle cx="156.0" cy="481.4" r="4.6" fill="#2a78d6" fill-opacity="0.88" stroke="#fcfcfb" stroke-width="1.5"/>
<circle cx="164.0" cy="481.4" r="4.6" fill="#2a78d6" fill-opacity="0.88" stroke="#fcfcfb" stroke-width="1.5"/>
<circle cx="140.0" cy="481.4" r="4.6" fill="#2a78d6" fill-opacity="0.88" stroke="#fcfcfb" stroke-width="1.5"/>
<circle cx="148.0" cy="481.4" r="4.6" fill="#2a78d6" fill-opacity="0.88" stroke="#fcfcfb" stroke-width="1.5"/>
<circle cx="156.0" cy="495.7" r="4.6" fill="#2a78d6" fill-opacity="0.88" stroke="#fcfcfb" stroke-width="1.5"/>
<circle cx="148.0" cy="481.4" r="4.6" fill="#2a78d6" fill-opacity="0.88" stroke="#fcfcfb" stroke-width="1.5"/>
<circle cx="164.0" cy="481.4" r="4.6" fill="#2a78d6" fill-opacity="0.88" stroke="#fcfcfb" stroke-width="1.5"/>
<circle cx="148.0" cy="467.1" r="4.6" fill="#2a78d6" fill-opacity="0.88" stroke="#fcfcfb" stroke-width="1.5"/>
<circle cx="148.0" cy="467.1" r="4.6" fill="#2a78d6" fill-opacity="0.88" stroke="#fcfcfb" stroke-width="1.5"/>
<circle cx="148.0" cy="481.4" r="4.6" fill="#2a78d6" fill-opacity="0.88" stroke="#fcfcfb" stroke-width="1.5"/>
<circle cx="172.0" cy="424.3" r="4.6" fill="#2a78d6" fill-opacity="0.88" stroke="#fcfcfb" stroke-width="1.5"/>
<circle cx="196.0" cy="452.9" r="4.6" fill="#2a78d6" fill-opacity="0.88" stroke="#fcfcfb" stroke-width="1.5"/>
<circle cx="156.0" cy="467.1" r="4.6" fill="#2a78d6" fill-opacity="0.88" stroke="#fcfcfb" stroke-width="1.5"/>
<circle cx="172.0" cy="481.4" r="4.6" fill="#2a78d6" fill-opacity="0.88" stroke="#fcfcfb" stroke-width="1.5"/>
<circle cx="156.0" cy="481.4" r="4.6" fill="#2a78d6" fill-opacity="0.88" stroke="#fcfcfb" stroke-width="1.5"/>
<circle cx="164.0" cy="481.4" r="4.6" fill="#2a78d6" fill-opacity="0.88" stroke="#fcfcfb" stroke-width="1.5"/>
<circle cx="156.0" cy="481.4" r="4.6" fill="#2a78d6" fill-opacity="0.88" stroke="#fcfcfb" stroke-width="1.5"/>
<rect x="415.8" y="305.8" width="8.4" height="8.4" rx="1" fill="#eb6834" fill-opacity="0.88" stroke="#fcfcfb" stroke-width="1.5"/>
<rect x="399.8" y="291.5" width="8.4" height="8.4" rx="1" fill="#eb6834" fill-opacity="0.88" stroke="#fcfcfb" stroke-width="1.5"/>
<rect x="431.8" y="291.5" width="8.4" height="8.4" rx="1" fill="#eb6834" fill-opacity="0.88" stroke="#fcfcfb" stroke-width="1.5"/>
<rect x="359.8" y="320.1" width="8.4" height="8.4" rx="1" fill="#eb6834" fill-opacity="0.88" stroke="#fcfcfb" stroke-width="1.5"/>
<rect x="407.8" y="291.5" width="8.4" height="8.4" rx="1" fill="#eb6834" fill-opacity="0.88" stroke="#fcfcfb" stroke-width="1.5"/>
<rect x="399.8" y="320.1" width="8.4" height="8.4" rx="1" fill="#eb6834" fill-opacity="0.88" stroke="#fcfcfb" stroke-width="1.5"/>
<rect x="415.8" y="277.2" width="8.4" height="8.4" rx="1" fill="#eb6834" fill-opacity="0.88" stroke="#fcfcfb" stroke-width="1.5"/>
<rect x="303.8" y="362.9" width="8.4" height="8.4" rx="1" fill="#eb6834" fill-opacity="0.88" stroke="#fcfcfb" stroke-width="1.5"/>
<rect x="407.8" y="320.1" width="8.4" height="8.4" rx="1" fill="#eb6834" fill-opacity="0.88" stroke="#fcfcfb" stroke-width="1.5"/>
<rect x="351.8" y="305.8" width="8.4" height="8.4" rx="1" fill="#eb6834" fill-opacity="0.88" stroke="#fcfcfb" stroke-width="1.5"/>
<rect x="319.8" y="362.9" width="8.4" height="8.4" rx="1" fill="#eb6834" fill-opacity="0.88" stroke="#fcfcfb" stroke-width="1.5"/>
<rect x="375.8" y="291.5" width="8.4" height="8.4" rx="1" fill="#eb6834" fill-opacity="0.88" stroke="#fcfcfb" stroke-width="1.5"/>
<rect x="359.8" y="362.9" width="8.4" height="8.4" rx="1" fill="#eb6834" fill-opacity="0.88" stroke="#fcfcfb" stroke-width="1.5"/>
<rect x="415.8" y="305.8" width="8.4" height="8.4" rx="1" fill="#eb6834" fill-opacity="0.88" stroke="#fcfcfb" stroke-width="1.5"/>
<rect x="327.8" y="320.1" width="8.4" height="8.4" rx="1" fill="#eb6834" fill-opacity="0.88" stroke="#fcfcfb" stroke-width="1.5"/>
<rect x="391.8" y="305.8" width="8.4" height="8.4" rx="1" fill="#eb6834" fill-opacity="0.88" stroke="#fcfcfb" stroke-width="1.5"/>
<rect x="399.8" y="291.5" width="8.4" height="8.4" rx="1" fill="#eb6834" fill-opacity="0.88" stroke="#fcfcfb" stroke-width="1.5"/>
<rect x="367.8" y="362.9" width="8.4" height="8.4" rx="1" fill="#eb6834" fill-opacity="0.88" stroke="#fcfcfb" stroke-width="1.5"/>
<rect x="399.8" y="291.5" width="8.4" height="8.4" rx="1" fill="#eb6834" fill-opacity="0.88" stroke="#fcfcfb" stroke-width="1.5"/>
<rect x="351.8" y="348.7" width="8.4" height="8.4" rx="1" fill="#eb6834" fill-opacity="0.88" stroke="#fcfcfb" stroke-width="1.5"/>
<rect x="423.8" y="248.7" width="8.4" height="8.4" rx="1" fill="#eb6834" fill-opacity="0.88" stroke="#fcfcfb" stroke-width="1.5"/>
<rect x="359.8" y="320.1" width="8.4" height="8.4" rx="1" fill="#eb6834" fill-opacity="0.88" stroke="#fcfcfb" stroke-width="1.5"/>
<rect x="431.8" y="291.5" width="8.4" height="8.4" rx="1" fill="#eb6834" fill-opacity="0.88" stroke="#fcfcfb" stroke-width="1.5"/>
<rect x="415.8" y="334.4" width="8.4" height="8.4" rx="1" fill="#eb6834" fill-opacity="0.88" stroke="#fcfcfb" stroke-width="1.5"/>
<rect x="383.8" y="320.1" width="8.4" height="8.4" rx="1" fill="#eb6834" fill-opacity="0.88" stroke="#fcfcfb" stroke-width="1.5"/>
<rect x="391.8" y="305.8" width="8.4" height="8.4" rx="1" fill="#eb6834" fill-opacity="0.88" stroke="#fcfcfb" stroke-width="1.5"/>
<rect x="423.8" y="305.8" width="8.4" height="8.4" rx="1" fill="#eb6834" fill-opacity="0.88" stroke="#fcfcfb" stroke-width="1.5"/>
<rect x="439.8" y="262.9" width="8.4" height="8.4" rx="1" fill="#eb6834" fill-opacity="0.88" stroke="#fcfcfb" stroke-width="1.5"/>
<rect x="399.8" y="291.5" width="8.4" height="8.4" rx="1" fill="#eb6834" fill-opacity="0.88" stroke="#fcfcfb" stroke-width="1.5"/>
<rect x="319.8" y="362.9" width="8.4" height="8.4" rx="1" fill="#eb6834" fill-opacity="0.88" stroke="#fcfcfb" stroke-width="1.5"/>
<rect x="343.8" y="348.7" width="8.4" height="8.4" rx="1" fill="#eb6834" fill-opacity="0.88" stroke="#fcfcfb" stroke-width="1.5"/>
<rect x="335.8" y="362.9" width="8.4" height="8.4" rx="1" fill="#eb6834" fill-opacity="0.88" stroke="#fcfcfb" stroke-width="1.5"/>
<rect x="351.8" y="334.4" width="8.4" height="8.4" rx="1" fill="#eb6834" fill-opacity="0.88" stroke="#fcfcfb" stroke-width="1.5"/>
<rect x="447.8" y="277.2" width="8.4" height="8.4" rx="1" fill="#eb6834" fill-opacity="0.88" stroke="#fcfcfb" stroke-width="1.5"/>
<rect x="399.8" y="291.5" width="8.4" height="8.4" rx="1" fill="#eb6834" fill-opacity="0.88" stroke="#fcfcfb" stroke-width="1.5"/>
<rect x="399.8" y="277.2" width="8.4" height="8.4" rx="1" fill="#eb6834" fill-opacity="0.88" stroke="#fcfcfb" stroke-width="1.5"/>
<rect x="415.8" y="291.5" width="8.4" height="8.4" rx="1" fill="#eb6834" fill-opacity="0.88" stroke="#fcfcfb" stroke-width="1.5"/>
<rect x="391.8" y="320.1" width="8.4" height="8.4" rx="1" fill="#eb6834" fill-opacity="0.88" stroke="#fcfcfb" stroke-width="1.5"/>
<rect x="367.8" y="320.1" width="8.4" height="8.4" rx="1" fill="#eb6834" fill-opacity="0.88" stroke="#fcfcfb" stroke-width="1.5"/>
<rect x="359.8" y="320.1" width="8.4" height="8.4" rx="1" fill="#eb6834" fill-opacity="0.88" stroke="#fcfcfb" stroke-width="1.5"/>
<rect x="391.8" y="334.4" width="8.4" height="8.4" rx="1" fill="#eb6834" fill-opacity="0.88" stroke="#fcfcfb" stroke-width="1.5"/>
<rect x="407.8" y="305.8" width="8.4" height="8.4" rx="1" fill="#eb6834" fill-opacity="0.88" stroke="#fcfcfb" stroke-width="1.5"/>
<rect x="359.8" y="334.4" width="8.4" height="8.4" rx="1" fill="#eb6834" fill-opacity="0.88" stroke="#fcfcfb" stroke-width="1.5"/>
<rect x="303.8" y="362.9" width="8.4" height="8.4" rx="1" fill="#eb6834" fill-opacity="0.88" stroke="#fcfcfb" stroke-width="1.5"/>
<rect x="375.8" y="320.1" width="8.4" height="8.4" rx="1" fill="#eb6834" fill-opacity="0.88" stroke="#fcfcfb" stroke-width="1.5"/>
<rect x="375.8" y="334.4" width="8.4" height="8.4" rx="1" fill="#eb6834" fill-opacity="0.88" stroke="#fcfcfb" stroke-width="1.5"/>
<rect x="375.8" y="320.1" width="8.4" height="8.4" rx="1" fill="#eb6834" fill-opacity="0.88" stroke="#fcfcfb" stroke-width="1.5"/>
<rect x="383.8" y="320.1" width="8.4" height="8.4" rx="1" fill="#eb6834" fill-opacity="0.88" stroke="#fcfcfb" stroke-width="1.5"/>
<rect x="279.8" y="348.7" width="8.4" height="8.4" rx="1" fill="#eb6834" fill-opacity="0.88" stroke="#fcfcfb" stroke-width="1.5"/>
<rect x="367.8" y="320.1" width="8.4" height="8.4" rx="1" fill="#eb6834" fill-opacity="0.88" stroke="#fcfcfb" stroke-width="1.5"/>
<path d="M524.0,147.3 L529.2,157.1 L518.8,157.1 Z" fill="#1baf7a" fill-opacity="0.88" stroke="#fcfcfb" stroke-width="1.5"/>
<path d="M452.0,233.0 L457.2,242.8 L446.8,242.8 Z" fill="#1baf7a" fill-opacity="0.88" stroke="#fcfcfb" stroke-width="1.5"/>
<path d="M516.0,204.4 L521.2,214.2 L510.8,214.2 Z" fill="#1baf7a" fill-opacity="0.88" stroke="#fcfcfb" stroke-width="1.5"/>
<path d="M492.0,247.3 L497.2,257.1 L486.8,257.1 Z" fill="#1baf7a" fill-opacity="0.88" stroke="#fcfcfb" stroke-width="1.5"/>
<path d="M508.0,190.1 L513.2,199.9 L502.8,199.9 Z" fill="#1baf7a" fill-opacity="0.88" stroke="#fcfcfb" stroke-width="1.5"/>
<path d="M572.0,204.4 L577.2,214.2 L566.8,214.2 Z" fill="#1baf7a" fill-opacity="0.88" stroke="#fcfcfb" stroke-width="1.5"/>
<path d="M404.0,261.5 L409.2,271.3 L398.8,271.3 Z" fill="#1baf7a" fill-opacity="0.88" stroke="#fcfcfb" stroke-width="1.5"/>
<path d="M548.0,247.3 L553.2,257.1 L542.8,257.1 Z" fill="#1baf7a" fill-opacity="0.88" stroke="#fcfcfb" stroke-width="1.5"/>
<path d="M508.0,247.3 L513.2,257.1 L502.8,257.1 Z" fill="#1baf7a" fill-opacity="0.88" stroke="#fcfcfb" stroke-width="1.5"/>
<path d="M532.0,147.3 L537.2,157.1 L526.8,157.1 Z" fill="#1baf7a" fill-opacity="0.88" stroke="#fcfcfb" stroke-width="1.5"/>
<path d="M452.0,218.7 L457.2,228.5 L446.8,228.5 Z" fill="#1baf7a" fill-opacity="0.88" stroke="#fcfcfb" stroke-width="1.5"/>
<path d="M468.0,233.0 L473.2,242.8 L462.8,242.8 Z" fill="#1baf7a" fill-opacity="0.88" stroke="#fcfcfb" stroke-width="1.5"/>
<path d="M484.0,204.4 L489.2,214.2 L478.8,214.2 Z" fill="#1baf7a" fill-opacity="0.88" stroke="#fcfcfb" stroke-width="1.5"/>
<path d="M444.0,218.7 L449.2,228.5 L438.8,228.5 Z" fill="#1baf7a" fill-opacity="0.88" stroke="#fcfcfb" stroke-width="1.5"/>
<path d="M452.0,161.5 L457.2,171.3 L446.8,171.3 Z" fill="#1baf7a" fill-opacity="0.88" stroke="#fcfcfb" stroke-width="1.5"/>
<path d="M468.0,175.8 L473.2,185.6 L462.8,185.6 Z" fill="#1baf7a" fill-opacity="0.88" stroke="#fcfcfb" stroke-width="1.5"/>
<path d="M484.0,247.3 L489.2,257.1 L478.8,257.1 Z" fill="#1baf7a" fill-opacity="0.88" stroke="#fcfcfb" stroke-width="1.5"/>
<path d="M580.0,190.1 L585.2,199.9 L574.8,199.9 Z" fill="#1baf7a" fill-opacity="0.88" stroke="#fcfcfb" stroke-width="1.5"/>
<path d="M596.0,175.8 L601.2,185.6 L590.8,185.6 Z" fill="#1baf7a" fill-opacity="0.88" stroke="#fcfcfb" stroke-width="1.5"/>
<path d="M444.0,290.1 L449.2,299.9 L438.8,299.9 Z" fill="#1baf7a" fill-opacity="0.88" stroke="#fcfcfb" stroke-width="1.5"/>
<path d="M500.0,175.8 L505.2,185.6 L494.8,185.6 Z" fill="#1baf7a" fill-opacity="0.88" stroke="#fcfcfb" stroke-width="1.5"/>
<path d="M436.0,218.7 L441.2,228.5 L430.8,228.5 Z" fill="#1baf7a" fill-opacity="0.88" stroke="#fcfcfb" stroke-width="1.5"/>
<path d="M580.0,218.7 L585.2,228.5 L574.8,228.5 Z" fill="#1baf7a" fill-opacity="0.88" stroke="#fcfcfb" stroke-width="1.5"/>
<path d="M436.0,247.3 L441.2,257.1 L430.8,257.1 Z" fill="#1baf7a" fill-opacity="0.88" stroke="#fcfcfb" stroke-width="1.5"/>
<path d="M500.0,204.4 L505.2,214.2 L494.8,214.2 Z" fill="#1baf7a" fill-opacity="0.88" stroke="#fcfcfb" stroke-width="1.5"/>
<path d="M524.0,247.3 L529.2,257.1 L518.8,257.1 Z" fill="#1baf7a" fill-opacity="0.88" stroke="#fcfcfb" stroke-width="1.5"/>
<path d="M428.0,247.3 L433.2,257.1 L422.8,257.1 Z" fill="#1baf7a" fill-opacity="0.88" stroke="#fcfcfb" stroke-width="1.5"/>
<path d="M436.0,247.3 L441.2,257.1 L430.8,257.1 Z" fill="#1baf7a" fill-opacity="0.88" stroke="#fcfcfb" stroke-width="1.5"/>
<path d="M492.0,204.4 L497.2,214.2 L486.8,214.2 Z" fill="#1baf7a" fill-opacity="0.88" stroke="#fcfcfb" stroke-width="1.5"/>
<path d="M508.0,275.8 L513.2,285.6 L502.8,285.6 Z" fill="#1baf7a" fill-opacity="0.88" stroke="#fcfcfb" stroke-width="1.5"/>
<path d="M532.0,233.0 L537.2,242.8 L526.8,242.8 Z" fill="#1baf7a" fill-opacity="0.88" stroke="#fcfcfb" stroke-width="1.5"/>
<path d="M556.0,218.7 L561.2,228.5 L550.8,228.5 Z" fill="#1baf7a" fill-opacity="0.88" stroke="#fcfcfb" stroke-width="1.5"/>
<path d="M492.0,190.1 L497.2,199.9 L486.8,199.9 Z" fill="#1baf7a" fill-opacity="0.88" stroke="#fcfcfb" stroke-width="1.5"/>
<path d="M452.0,290.1 L457.2,299.9 L446.8,299.9 Z" fill="#1baf7a" fill-opacity="0.88" stroke="#fcfcfb" stroke-width="1.5"/>
<path d="M492.0,304.4 L497.2,314.2 L486.8,314.2 Z" fill="#1baf7a" fill-opacity="0.88" stroke="#fcfcfb" stroke-width="1.5"/>
<path d="M532.0,175.8 L537.2,185.6 L526.8,185.6 Z" fill="#1baf7a" fill-opacity="0.88" stroke="#fcfcfb" stroke-width="1.5"/>
<path d="M492.0,161.5 L497.2,171.3 L486.8,171.3 Z" fill="#1baf7a" fill-opacity="0.88" stroke="#fcfcfb" stroke-width="1.5"/>
<path d="M484.0,247.3 L489.2,257.1 L478.8,257.1 Z" fill="#1baf7a" fill-opacity="0.88" stroke="#fcfcfb" stroke-width="1.5"/>
<path d="M428.0,247.3 L433.2,257.1 L422.8,257.1 Z" fill="#1baf7a" fill-opacity="0.88" stroke="#fcfcfb" stroke-width="1.5"/>
<path d="M476.0,204.4 L481.2,214.2 L470.8,214.2 Z" fill="#1baf7a" fill-opacity="0.88" stroke="#fcfcfb" stroke-width="1.5"/>
<path d="M492.0,161.5 L497.2,171.3 L486.8,171.3 Z" fill="#1baf7a" fill-opacity="0.88" stroke="#fcfcfb" stroke-width="1.5"/>
<path d="M452.0,175.8 L457.2,185.6 L446.8,185.6 Z" fill="#1baf7a" fill-opacity="0.88" stroke="#fcfcfb" stroke-width="1.5"/>
<path d="M452.0,233.0 L457.2,242.8 L446.8,242.8 Z" fill="#1baf7a" fill-opacity="0.88" stroke="#fcfcfb" stroke-width="1.5"/>
<path d="M516.0,175.8 L521.2,185.6 L510.8,185.6 Z" fill="#1baf7a" fill-opacity="0.88" stroke="#fcfcfb" stroke-width="1.5"/>
<path d="M500.0,147.3 L505.2,157.1 L494.8,157.1 Z" fill="#1baf7a" fill-opacity="0.88" stroke="#fcfcfb" stroke-width="1.5"/>
<path d="M460.0,175.8 L465.2,185.6 L454.8,185.6 Z" fill="#1baf7a" fill-opacity="0.88" stroke="#fcfcfb" stroke-width="1.5"/>
<path d="M444.0,233.0 L449.2,242.8 L438.8,242.8 Z" fill="#1baf7a" fill-opacity="0.88" stroke="#fcfcfb" stroke-width="1.5"/>
<path d="M460.0,218.7 L465.2,228.5 L454.8,228.5 Z" fill="#1baf7a" fill-opacity="0.88" stroke="#fcfcfb" stroke-width="1.5"/>
<path d="M476.0,175.8 L481.2,185.6 L470.8,185.6 Z" fill="#1baf7a" fill-opacity="0.88" stroke="#fcfcfb" stroke-width="1.5"/>
<path d="M452.0,247.3 L457.2,257.1 L446.8,257.1 Z" fill="#1baf7a" fill-opacity="0.88" stroke="#fcfcfb" stroke-width="1.5"/>
<path d="M420.0,244.9 L436.0,260.9 M420.0,260.9 L436.0,244.9" stroke="#0b0b0b" stroke-width="2.4" stroke-linecap="round" fill="none"/>
<path d="M484.0,302.0 L500.0,318.0 M484.0,318.0 L500.0,302.0" stroke="#0b0b0b" stroke-width="2.4" stroke-linecap="round" fill="none"/>
<path d="M436.0,259.1 L452.0,275.1 M436.0,275.1 L452.0,259.1" stroke="#0b0b0b" stroke-width="2.4" stroke-linecap="round" fill="none"/>
<circle cx="156.0" cy="481.4" r="11" fill="none" stroke="#0b0b0b" stroke-width="2.2"/>
<circle cx="156.0" cy="459.4" r="10" fill="#0b0b0b"/>
<text x="156.0" y="463.9" font-size="12.5" font-weight="700" fill="#ffffff" text-anchor="middle">A</text>
<circle cx="404.0" cy="295.7" r="11" fill="none" stroke="#0b0b0b" stroke-width="2.2"/>
<circle cx="380.0" cy="291.7" r="10" fill="#0b0b0b"/>
<text x="380.0" y="296.2" font-size="12.5" font-weight="700" fill="#ffffff" text-anchor="middle">B</text>
<circle cx="484.0" cy="224.3" r="11" fill="none" stroke="#0b0b0b" stroke-width="2.2"/>
<circle cx="484.0" cy="202.3" r="10" fill="#0b0b0b"/>
<text x="484.0" y="206.8" font-size="12.5" font-weight="700" fill="#ffffff" text-anchor="middle">C</text>
<text x="160.0" y="381.4" font-size="14" font-weight="700" fill="#0b0b0b" text-anchor="middle">setosa</text>
<text x="328.0" y="255.7" font-size="14" font-weight="700" fill="#0b0b0b" text-anchor="middle">versicolor</text>
<text x="540.0" y="335.7" font-size="14" font-weight="700" fill="#0b0b0b" text-anchor="middle">virginica</text>
<text x="678" y="116" font-size="13.5" font-weight="700" fill="#0b0b0b">สายพันธุ์ (ชนิดละ 50 ดอก)</text>
<circle cx="686.0" cy="142.0" r="6" fill="#2a78d6" fill-opacity="0.88" stroke="#fcfcfb" stroke-width="1.5"/>
<text x="704" y="147" font-size="13.5" fill="#0b0b0b">setosa</text>
<rect x="680.4" y="162.4" width="11.2" height="11.2" rx="1" fill="#eb6834" fill-opacity="0.88" stroke="#fcfcfb" stroke-width="1.5"/>
<text x="704" y="173" font-size="13.5" fill="#0b0b0b">versicolor</text>
<path d="M686.0,187.0 L692.6,199.6 L679.4,199.6 Z" fill="#1baf7a" fill-opacity="0.88" stroke="#fcfcfb" stroke-width="1.5"/>
<text x="704" y="199" font-size="13.5" fill="#0b0b0b">virginica</text>
<line x1="678" y1="206" x2="880" y2="206" stroke="#e6e4dd"/>
<text x="678" y="228" font-size="13.5" font-weight="700" fill="#0b0b0b">สัญลักษณ์เพิ่ม</text>
<circle cx="687" cy="252" r="9" fill="none" stroke="#0b0b0b" stroke-width="2.2"/>
<text x="704" y="257" font-size="13" fill="#0b0b0b">A B C = input 3 ชุด</text>
<text x="704" y="276" font-size="13" fill="#52514e">ในแบบฝึกหัดข้อ 1</text>
<path d="M680,303 L694,317 M680,317 L694,303" stroke="#0b0b0b" stroke-width="2.4" stroke-linecap="round" fill="none"/>
<text x="704" y="315" font-size="13" fill="#0b0b0b">3 ดอกใน test set</text>
<text x="704" y="334" font-size="13" fill="#52514e">ที่โมเดลทายผิด</text>
<line x1="678" y1="350" x2="880" y2="350" stroke="#e6e4dd"/>
<text x="678" y="374" font-size="13" fill="#52514e">จุดที่ทายผิดอยู่ตรงรอยต่อ</text>
<text x="678" y="393" font-size="13" fill="#52514e">ระหว่าง versicolor กับ</text>
<text x="678" y="412" font-size="13" fill="#52514e">virginica พอดี</text>
</svg>